PathFileType	4	(X/Y/Z)	C:/Users/beibeiliu/ov580/test_trc/User2\sequence.26_training_dense_right.trc
DataRate	CameraRate	NumFrames	NumMarkers	Units	OrigDataRate	OrigDataStartFrame	OrigNumFrames
120	120	12	19	mm	120	1	109
Frame#	Time	ThumbCMC			ThumbMCP			ThumbIP			ThumbTip			IndexMCP			IndexPIP			IndexTip			MiddleMCP			MiddlePIP			MiddleTip			RingMCP			RingPIP			RingTip			PinkyMCP			PinkyPIP			PinkyTip			BackHand1			BackHand2			BackHand3	
		X0	Y0	Z0	X1	Y1	Z1	X2	Y2	Z2	X3	Y3	Z3	X4	Y4	Z4	X5	Y5	Z5	X6	Y6	Z6	X7	Y7	Z7	X8	Y8	Z8	X9	Y9	Z9	X10	Y10	Z10	X11	Y11	Z11	X12	Y12	Z12	X13	Y13	Z13	X14	Y14	Z14	X15	Y15	Z15	X16	Y16	Z16	X17	Y17	Z17	X18	Y18	Z18	
0	0	108.459	76.6841	-16.8979	90.5345	101.132	-34.47	68.7005	113.819	-58.9706	52.0763	122.543	-73.2431	67.1477	48.6335	-87.9163	36.4482	41.7001	-72.3248	41.8666	47.7586	-40.3687	65.497	22.3673	-83.6173	34.938	24.9246	-62.1587	52.3114	35.1851	-25.9351	65.6889	3.74524	-78.9286	39.3255	7.28494	-60.9546	56.171	21.8208	-30.5171	87.722	-22.1573	-69.0492	71.213	-39.72	-80.3382	58.7368	-55.3226	-91.1251	123.354	14.5686	-49.1936	143.546	21.372	-20.1128	129.143	52.5316	-36.924	
1	0.00833333	129.203	82.0196	-26.4569	119.505	103.095	-39.7913	101.416	122.068	-67.3761	89.5435	138.892	-78.8931	75.0864	62.9641	-85.3028	44.7465	70.8438	-69.225	60.762	70.7981	-36.1611	66.2163	42.5431	-78.7763	40.6284	56.2252	-51.6722	68.0134	60.8639	-23.1394	56.9479	25.4176	-71.1095	36.9447	32.0601	-50.2163	64.0714	46.9726	-25.7578	69.8075	-6.99566	-57.7785	45.2743	-18.7334	-65.2192	25.1375	-26.5884	-76.1366	118.775	14.7976	-46.2493	142.605	16.1481	-20.0832	138.521	48.8828	-43.1896	
2	0.0166667	151.037	78.4973	-28.9368	142.499	99.4263	-50.0436	132.744	122.212	-76.2223	122.98	137.22	-90.4049	83.8592	72.982	-85.8468	60.7693	92.1189	-72.8155	76.0645	89.6858	-39.2089	65.4278	60.1156	-76.2368	53.0849	81.2932	-50.4496	85.685	77.335	-25.5	56.0105	42.3474	-64.7104	43.5485	62.4923	-47.8036	73.347	66.1365	-24.962	57.9939	11.3148	-50.9046	33.5697	10.3022	-52.1235	13.0888	6.86514	-60.4315	112.501	16.1217	-44.9563	136.477	9.43983	-21.9968	143.765	40.3864	-45.0162	
3	0.025	163.043	67.8563	-38.1595	164.544	88.3422	-56.7352	157.449	109.602	-86.9898	154.225	127.844	-102.893	98.3968	77.453	-91.5209	80.1318	104.093	-75.4233	96.1728	97.7449	-44.9376	73.1592	66.7444	-78.6018	67.6741	94.9314	-54.0749	97.9306	84.4912	-31.9528	60.3058	58.9175	-69.0993	55.0601	84.0866	-49.4577	85.3883	80.8536	-31.0193	55.9714	28.7583	-49.7641	33.3348	34.5419	-52.3319	6.18147	35.4807	-60.956	110.424	18.5708	-46.9384	131.461	8.34933	-19.1924	144.839	35.5038	-51.2539	
4	0.0333333	171.868	53.7601	-43.8557	176.419	71.2502	-62.8643	178.002	90.357	-93.5471	176.831	107.398	-112.836	107.993	75.0811	-98.7255	99.6666	104.797	-88.755	113.707	98.406	-55.0935	89.6807	68.6114	-88.534	86.7844	101.516	-66.8493	112.164	89.6126	-42.418	73.0077	62.2085	-75.0279	71.5609	94.385	-62.976	98.5179	87.6981	-39.1019	60.1869	39.9935	-51.7947	34.3008	50.8939	-62.1914	12.6347	57.8174	-70.5404	109.59	17.9812	-44.6257	124.117	3.281	-18.4215	143.68	22.6966	-47.3301	
5	0.0416667	174.984	43.072	-45.8473	181.305	57.4647	-65.5043	188.818	72.6624	-93.213	191.455	86.6464	-115.493	122.379	65.719	-106.276	111.591	95.6027	-96.4174	132.912	94.1261	-65.5765	97.4583	62.4431	-95.9149	95.8228	97.2137	-81.3986	120.927	87.3499	-53.2056	80.988	62.512	-86.7248	78.5718	92.0926	-76.9164	105.702	89.2218	-53.8212	61.943	42.6702	-61.9526	45.8668	53.5891	-74.1527	20.5945	61.4957	-86.9456	104.799	15.8976	-47.0071	121.664	3.99477	-21.5358	142.855	16.0256	-51.169	
6	0.05	176.793	36.3725	-45.7588	189.981	48.2178	-67.8773	198.717	61.157	-100.477	202.715	74.3145	-120.123	129.051	53.667	-112.127	123.68	86.8174	-107.611	133.073	84.0461	-72.9442	106.609	52.6753	-105.736	104.597	87.6013	-93.6174	126.202	78.6506	-61.0334	83.9781	51.7612	-93.9686	84.3113	82.7078	-87.6416	108.053	82.3557	-60.7465	71.6967	34.0003	-70.6747	48.5454	44.7634	-85.1383	29.4612	51.4331	-102.765	113.088	8.10511	-49.6314	126.783	-0.457131	-21.9121	149.067	9.61422	-52.4117	
7	0.0583333	184.177	35.1905	-45.6583	193.535	47.1671	-71.5579	202.464	59.1751	-102.553	207.701	70.5713	-125.263	136.789	42.5538	-119.782	123.563	73.704	-113.409	136.194	76.4308	-79.3671	110.289	40.2905	-111.605	106.727	74.3519	-101.166	127.896	66.4095	-65.1592	89.2659	37.0889	-100.907	86.3359	67.7755	-95.6311	111.122	71.7146	-71.0485	79.5163	16.6603	-76.0481	59.827	22.2926	-92.9483	37.7902	22.9639	-110.118	120.868	-1.5427	-57.6233	135.327	-7.43	-22.778	160.774	3.86421	-53.0602	
8	0.0666667	183.461	34.7038	-51.0198	194.18	49.5319	-72.5255	201.6	61.1614	-101.378	207.975	73.811	-123.672	141.745	30.4433	-122.562	125.392	58.9259	-122.297	129.971	67.0239	-89.2335	118.17	22.0294	-115.648	107.076	57.4059	-105.891	124.463	59.0881	-75.2554	102.212	14.3135	-105.857	90.4117	44.3923	-106.547	110.876	55.432	-74.7692	89.1299	-5.98142	-81.2677	70.6594	-5.31108	-101.379	51.2148	-9.52458	-113.818	130.206	-14.6751	-56.7056	142.625	-15.5748	-25.7612	167.909	-0.496013	-51.5706	
9	0.075	189.344	37.0401	-48.2933	194.264	52.0224	-74.7905	201.863	63.9872	-103.384	206.07	75.4824	-127.333	149.643	17.5779	-125.148	131.59	42.6835	-130.086	131.629	54.6097	-93.6361	130.295	9.23186	-122.745	110.477	39.4592	-113.279	125.136	48.1223	-80.9778	113.732	-4.69365	-110.188	97.6616	22.7248	-114.082	112.476	39.5609	-83.8952	103.221	-27.3497	-83.9777	87.6139	-32.4863	-104.483	74.4755	-41.5146	-122.557	147.916	-19.2409	-57.4852	154.562	-21.0009	-27.9874	178.229	-4.8076	-50.8604	
10	0.0833333	188.7	36.4418	-51.6302	196.602	54.6134	-77.8393	201.928	69.1938	-106.938	202.093	78.3554	-130.278	164.722	11.6852	-126.109	135.93	33.6591	-131.522	130.871	41.8429	-98.9313	142.297	-2.7516	-124.134	115.755	20.4657	-121.051	126.035	35.1471	-85.0482	126.162	-17.8774	-116.496	106.777	5.3836	-119.082	116.57	25.2289	-89.2429	121.422	-42.4129	-88.282	109.537	-51.144	-109.344	97.8897	-65.8829	-129.452	163.099	-24.9328	-57.894	170.185	-23.8235	-26.0758	187.509	-1.5385	-51.3797	
11	0.0916667	188.623	44.7809	-46.9782	191.148	58.544	-73.8469	197.454	75.7535	-108.278	198.003	88.169	-130.336	174.585	15.9665	-128.632	142.861	26.413	-133.282	136.862	36.9962	-99.0109	161.596	-3.66805	-125.062	126.214	13.2463	-124.781	128.693	30.5328	-89.4119	146.674	-23.5515	-120.076	120.825	-6.56537	-123.131	125.152	15.651	-92.0881	147.415	-48.3438	-97.8958	135.598	-62.8885	-116.352	127.968	-76.7087	-133.481	178.166	-26.784	-63.6775	182.761	-20.8686	-28.7258	198.568	7.34041	-55.6193	
